<svg xmlns="http://www.w3.org/2000/svg" width="380" height="130" viewBox="0 0 380 130">
  <defs>
    <style>
      .cls-1, .cls-2 {
        fill-rule: evenodd;
      }

      .cls-2 {
        fill: #3b02ff;
      }
    </style>
  </defs>
  <path id="huddle" class="cls-1" d="M31.215,65.2h9.676v51.332H61.965V54.375H51.715V44.125h-20.5V13.375H10.141V116.531H31.215V65.2Zm20.5-10.824h10.25V44.125H51.715v10.25Zm59.86,62.156V106.2h10.25V44.125H100.751v51.25H91.075V44.125H70V106.2h10.25v10.332h31.324Zm-41.574,0h10.25V106.2H70v10.332Zm41.574-.328h10.25v-10h-10.25v10Zm39.36-51h9.676V95.375h-9.676V65.2Zm30.75,51.332V13.375H160.611v30.75h-20.5v10.25h-10.25V106.2h10.25v10.332h41.574Zm-51.25-62.156h9.676V44.453h-9.676v9.922Zm-0.574,62.156h10.25V106.2h-10.25v10.332ZM210.8,65.2h9.676V95.375H210.8V65.2Zm30.75,51.332V13.375H220.471v30.75h-20.5v10.25h-10.25V106.2h10.25v10.332h41.574ZM190.3,54.375h9.676V44.453H190.3v9.922Zm-0.574,62.156h10.25V106.2h-10.25v10.332ZM270.655,13.375H249.581V116.531h21.074V13.375ZM309.441,65.2v9.676h-9.676V65.2h9.676Zm21.074,51.332V95.375h-30.75V85.7h30.75V54.375h-10.25V44.125H288.941v10.25h-10.25V106.2h10.25v10.332h41.574Zm-51.25-62.156h9.676V44.453h-9.676v9.922Zm41,0h10.25V44.125h-10.25v10.25Zm-41.574,62.156h10.25V106.2h-10.25v10.332Z"/>
  <path id="_." data-name="." class="cls-2" d="M368.151,86.231H337.825v30.444h30.326V86.231Z"/>
</svg>
